NotoSerif-Italic.ufo
<glyph name="hyphen" format="2">
  <advance width="310"/>
  <unicode hex="002D"/>
  <outline>
    <contour>
      <point x="14" y="235" type="line"/>
      <point x="274" y="235" type="line"/>
      <point x="290" y="310" type="line"/>
      <point x="30" y="310" type="line"/>
    </contour>
  </outline>
</glyph>
<glyph name="Eth" format="2">
  <advance width="725"/>
  <unicode hex="00D0"/>
  <anchor x="306" y="0" name="bottom"/>
  <anchor x="458" y="714" name="top"/>
  <anchor x="401" y="357" name="center"/>
  <anchor x="800" y="714" name="topright"/>
  <outline>
    <contour>
      <point x="51" y="349" type="line"/>
      <point x="417" y="349" type="line"/>
      <point x="428" y="398" type="line"/>
      <point x="62" y="398" type="line"/>
    </contour>
    <component base="D"/>
  </outline>
</glyph>
<glyph name="Hbar" format="2">
  <advance width="793"/>
  <unicode hex="0126"/>
  <anchor x="340" y="0" name="bottom"/>
  <anchor x="492" y="714" name="top"/>
  <anchor x="435" y="357" name="center"/>
  <anchor x="868" y="714" name="topright"/>
  <outline>
    <contour>
      <point x="85" y="499" type="line"/>
      <point x="802" y="499" type="line"/>
      <point x="811" y="548" type="line"/>
      <point x="94" y="548" type="line"/>
    </contour>
    <component base="H"/>
  </outline>
</glyph>
<glyph name="uni0191" format="2">
  <advance width="710"/>
  <unicode hex="0191"/>
  <anchor x="120" y="-10" name="bottom"/>
  <anchor x="510" y="714" name="top"/>
  <anchor x="801" y="714" name="topright"/>
  <outline>
    <contour>
      <point x="116" y="-10" type="curve" smooth="yes"/>
      <point x="244" y="-10"/>
      <point x="306" y="58"/>
      <point x="332" y="178" type="curve" smooth="yes"/>
      <point x="364" y="326" type="line"/>
      <point x="605" y="326" type="line"/>
      <point x="615" y="375" type="line"/>
      <point x="374" y="375" type="line"/>
      <point x="436" y="664" type="line"/>
      <point x="600" y="664" type="line" smooth="yes"/>
      <point x="656" y="664"/>
      <point x="675" y="635"/>
      <point x="675" y="597" type="curve" smooth="yes"/>
      <point x="675" y="592"/>
      <point x="672" y="561"/>
      <point x="670" y="539" type="curve"/>
      <point x="722" y="539" type="line"/>
      <point x="754" y="714" type="line"/>
      <point x="250" y="714" type="line"/>
      <point x="241" y="672" type="line"/>
      <point x="254" y="672" type="line" smooth="yes"/>
      <point x="296" y="672"/>
      <point x="326" y="666"/>
      <point x="326" y="632" type="curve" smooth="yes"/>
      <point x="326" y="626"/>
      <point x="324" y="612"/>
      <point x="322" y="604" type="curve"/>
      <point x="228" y="154" type="line" smooth="yes"/>
      <point x="210" y="69"/>
      <point x="177" y="38"/>
      <point x="111" y="38" type="curve" smooth="yes"/>
      <point x="33" y="38"/>
      <point x="18" y="99"/>
      <point x="18" y="169" type="curve"/>
      <point x="-6" y="169"/>
      <point x="-47" y="155"/>
      <point x="-47" y="101" type="curve" smooth="yes"/>
      <point x="-47" y="31"/>
      <point x="16" y="-10"/>
    </contour>
  </outline>
</glyph>
<glyph name="florin" format="2">
  <advance width="404"/>
  <unicode hex="0192"/>
  <anchor x="69" y="-12" name="bottom"/>
  <anchor x="442" y="770" name="top"/>
  <anchor x="591" y="770" name="topright"/>
  <outline>
    <contour>
      <point x="69" y="-12" type="curve" smooth="yes"/>
      <point x="179" y="-12"/>
      <point x="235" y="53"/>
      <point x="267" y="206" type="curve" smooth="yes"/>
      <point x="325" y="479" type="line"/>
      <point x="437" y="479" type="line"/>
      <point x="448" y="536" type="line"/>
      <point x="337" y="536" type="line"/>
      <point x="350" y="600" type="line" smooth="yes"/>
      <point x="366" y="684"/>
      <point x="390" y="724"/>
      <point x="439" y="724" type="curve" smooth="yes"/>
      <point x="481" y="724"/>
      <point x="490" y="682"/>
      <point x="490" y="631" type="curve"/>
      <point x="543" y="631"/>
      <point x="573" y="652"/>
      <point x="573" y="696" type="curve" smooth="yes"/>
      <point x="573" y="740"/>
      <point x="529" y="770"/>
      <point x="444" y="770" type="curve" smooth="yes"/>
      <point x="334" y="770"/>
      <point x="276" y="705"/>
      <point x="254" y="591" type="curve" smooth="yes"/>
      <point x="243" y="536" type="line"/>
      <point x="147" y="515" type="line"/>
      <point x="141" y="479" type="line"/>
      <point x="232" y="479" type="line"/>
      <point x="171" y="197" type="line" smooth="yes"/>
      <point x="145" y="74"/>
      <point x="123" y="34"/>
      <point x="74" y="34" type="curve" smooth="yes"/>
      <point x="32" y="34"/>
      <point x="23" y="76"/>
      <point x="23" y="127" type="curve"/>
      <point x="-22" y="127"/>
      <point x="-50" y="109"/>
      <point x="-50" y="68" type="curve" smooth="yes"/>
      <point x="-50" y="21"/>
      <point x="-8" y="-12"/>
    </contour>
  </outline>
</glyph>
<glyph name="uni0197" format="2">
  <advance width="367"/>
  <unicode hex="0197"/>
  <anchor x="127" y="0" name="bottom"/>
  <anchor x="279" y="714" name="top"/>
  <anchor x="442" y="714" name="topright"/>
  <outline>
    <contour>
      <point x="51" y="349" type="line"/>
      <point x="344" y="349" type="line"/>
      <point x="355" y="398" type="line"/>
      <point x="62" y="398" type="line"/>
    </contour>
    <component base="I"/>
  </outline>
</glyph>
<glyph name="uni019A" format="2">
  <advance width="304"/>
  <unicode hex="019A"/>
  <anchor x="95" y="0" name="bottom"/>
  <anchor x="257" y="760" name="top"/>
  <anchor x="209" y="268" name="center"/>
  <anchor x="389" y="760" name="topright"/>
  <outline>
    <contour>
      <point x="34" y="365" type="line"/>
      <point x="304" y="365" type="line"/>
      <point x="313" y="412" type="line"/>
      <point x="43" y="412" type="line"/>
    </contour>
    <component base="l"/>
  </outline>
</glyph>
<glyph name="uni019B" format="2">
  <advance width="535"/>
  <unicode hex="019B"/>
  <anchor x="211" y="0" name="bottom"/>
  <anchor x="375" y="770" name="top"/>
  <outline>
    <contour>
      <point x="175" y="529" type="line"/>
      <point x="473" y="680" type="line"/>
      <point x="486" y="737" type="line"/>
      <point x="187" y="585" type="line"/>
    </contour>
    <component base="lambda"/>
  </outline>
</glyph>
<glyph name="uni01B5" format="2">
  <advance width="605"/>
  <unicode hex="01B5"/>
  <anchor x="246" y="0" name="bottom"/>
  <anchor x="398" y="714" name="top"/>
  <anchor x="680" y="714" name="topright"/>
  <outline>
    <contour>
      <point x="109" y="350" type="line"/>
      <point x="241" y="350" type="line"/>
      <point x="362" y="350" type="line"/>
      <point x="521" y="350" type="line"/>
      <point x="531" y="396" type="line"/>
      <point x="399" y="396" type="line"/>
      <point x="278" y="396" type="line"/>
      <point x="119" y="396" type="line"/>
    </contour>
    <component base="Z"/>
  </outline>
</glyph>
<glyph name="uni01E4" format="2">
  <advance width="714"/>
  <unicode hex="01E4"/>
  <anchor x="300" y="0" name="bottom"/>
  <anchor x="452" y="714" name="top"/>
  <anchor x="789" y="714" name="topright"/>
  <outline>
    <contour>
      <point x="373" y="153" type="line"/>
      <point x="663" y="153" type="line"/>
      <point x="673" y="199" type="line"/>
      <point x="383" y="199" type="line"/>
    </contour>
    <component base="G"/>
  </outline>
</glyph>
<glyph name="uni023A" format="2">
  <advance width="705"/>
  <unicode hex="023A"/>
  <anchor x="296" y="0" name="bottom"/>
  <anchor x="448" y="714" name="top"/>
  <anchor x="780" y="714" name="topright"/>
  <outline>
    <contour>
      <point x="125" y="-58" type="line"/>
      <point x="179" y="-58" type="line"/>
      <point x="621" y="760" type="line"/>
      <point x="567" y="760" type="line"/>
    </contour>
    <component base="A"/>
  </outline>
</glyph>
<glyph name="uni023B" format="2">
  <advance width="627"/>
  <unicode hex="023B"/>
  <anchor x="307" y="0" name="bottom"/>
  <anchor x="461" y="714" name="top"/>
  <anchor x="702" y="714" name="topright"/>
  <outline>
    <contour>
      <point x="150" y="-58" type="line"/>
      <point x="204" y="-58" type="line"/>
      <point x="546" y="760" type="line"/>
      <point x="492" y="760" type="line"/>
    </contour>
    <component base="C"/>
  </outline>
</glyph>
<glyph name="uni023D" format="2">
  <advance width="623"/>
  <unicode hex="023D"/>
  <anchor x="255" y="0" name="bottom"/>
  <anchor x="407" y="714" name="top"/>
  <anchor x="350" y="357" name="center"/>
  <anchor x="698" y="714" name="topright"/>
  <outline>
    <contour>
      <point x="51" y="349" type="line"/>
      <point x="148" y="349" type="line"/>
      <point x="248" y="349" type="line"/>
      <point x="397" y="349" type="line"/>
      <point x="408" y="398" type="line"/>
      <point x="259" y="398" type="line"/>
      <point x="158" y="398" type="line"/>
      <point x="62" y="398" type="line"/>
    </contour>
    <component base="L"/>
  </outline>
</glyph>
<glyph name="uni023E" format="2">
  <advance width="613"/>
  <unicode hex="023E"/>
  <anchor x="250" y="0" name="bottom"/>
  <anchor x="402" y="714" name="top"/>
  <anchor x="345" y="357" name="center"/>
  <anchor x="688" y="714" name="topright"/>
  <outline>
    <contour>
      <point x="-45" y="-58" type="line"/>
      <point x="16" y="-58" type="line"/>
      <point x="683" y="760" type="line"/>
      <point x="622" y="760" type="line"/>
    </contour>
    <component base="T"/>
  </outline>
</glyph>
<glyph name="uni0243" format="2">
  <advance width="654"/>
  <unicode hex="0243"/>
  <anchor x="270" y="0" name="bottom"/>
  <anchor x="422" y="714" name="top"/>
  <anchor x="729" y="714" name="topright"/>
  <outline>
    <contour>
      <point x="16" y="180" type="line"/>
      <point x="332" y="180" type="line"/>
      <point x="343" y="229" type="line"/>
      <point x="27" y="229" type="line"/>
    </contour>
    <component base="B"/>
  </outline>
</glyph>
<glyph name="uni0249" format="2">
  <advance width="291"/>
  <unicode hex="0249"/>
  <anchor x="38" y="-240" name="bottom"/>
  <anchor x="251" y="761" name="top"/>
  <anchor x="376" y="761" name="topright"/>
  <outline>
    <contour>
      <point x="13" y="262" type="line"/>
      <point x="281" y="262" type="line"/>
      <point x="291" y="308" type="line"/>
      <point x="23" y="308" type="line"/>
    </contour>
    <component base="j"/>
  </outline>
</glyph>
<glyph name="uni024E" format="2">
  <advance width="625"/>
  <unicode hex="024E"/>
  <anchor x="256" y="0" name="bottom"/>
  <anchor x="408" y="714" name="top"/>
  <anchor x="700" y="714" name="topright"/>
  <outline>
    <contour>
      <point x="62" y="519" type="line"/>
      <point x="673" y="519" type="line"/>
      <point x="684" y="568" type="line"/>
      <point x="73" y="568" type="line"/>
    </contour>
    <component base="Y"/>
  </outline>
</glyph>
<glyph name="uni024F" format="2">
  <advance width="528"/>
  <unicode hex="024F"/>
  <anchor x="46" y="-240" name="bottom"/>
  <anchor x="291" y="536" name="top"/>
  <anchor x="545" y="536" name="topright"/>
  <outline>
    <contour>
      <point x="7" y="301" type="line"/>
      <point x="540" y="301" type="line"/>
      <point x="549" y="348" type="line"/>
      <point x="16" y="348" type="line"/>
    </contour>
    <component base="y"/>
  </outline>
</glyph>
<glyph name="uni0268" format="2">
  <advance width="304"/>
  <unicode hex="0268"/>
  <anchor x="95" y="0" name="bottom"/>
  <anchor x="257" y="761" name="top"/>
  <anchor x="389" y="761" name="topright"/>
  <outline>
    <contour>
      <point x="11" y="262" type="line"/>
      <point x="279" y="262" type="line"/>
      <point x="289" y="308" type="line"/>
      <point x="21" y="308" type="line"/>
    </contour>
    <component base="i"/>
  </outline>
</glyph>
<glyph name="uni0289" format="2">
  <advance width="599"/>
  <unicode hex="0289"/>
  <anchor x="243" y="0" name="bottom"/>
  <anchor x="357" y="536" name="top"/>
  <anchor x="636" y="536" name="topright"/>
  <outline>
    <contour>
      <point x="14" y="262" type="line"/>
      <point x="580" y="262" type="line"/>
      <point x="590" y="308" type="line"/>
      <point x="24" y="308" type="line"/>
    </contour>
    <component base="u"/>
  </outline>
</glyph>
<glyph name="uni02A2" format="2">
  <advance width="436"/>
  <unicode hex="02A2"/>
  <anchor x="161" y="0" name="bottom"/>
  <anchor x="325" y="770" name="top"/>
  <outline>
    <contour>
      <point x="84" y="187" type="line"/>
      <point x="351" y="187" type="line"/>
      <point x="361" y="233" type="line"/>
      <point x="94" y="233" type="line"/>
    </contour>
    <component base="uni0295"/>
  </outline>
</glyph>
<glyph name="dotaccent" format="2">
  <advance width="197"/>
  <unicode hex="02D9"/>
  <outline>
    <contour>
      <point x="188" y="636" type="curve" smooth="yes"/>
      <point x="217" y="636"/>
      <point x="248" y="654"/>
      <point x="248" y="706" type="curve" smooth="yes"/>
      <point x="248" y="743"/>
      <point x="224" y="761"/>
      <point x="192" y="761" type="curve" smooth="yes"/>
      <point x="156" y="761"/>
      <point x="132" y="733"/>
      <point x="132" y="691" type="curve" smooth="yes"/>
      <point x="132" y="654"/>
      <point x="155" y="636"/>
    </contour>
  </outline>
</glyph>
<glyph name="uni02F0" format="2">
  <advance width="337"/>
  <unicode hex="02F0"/>
  <outline>
    <contour>
      <point x="-68" y="-240" type="line"/>
      <point x="-14" y="-240" type="line"/>
      <point x="23" y="-209"/>
      <point x="59" y="-175"/>
      <point x="89" y="-131" type="curve"/>
      <point x="100" y="-163"/>
      <point x="118" y="-202"/>
      <point x="141" y="-240" type="curve"/>
      <point x="189" y="-240" type="line"/>
      <point x="191" y="-230" type="line"/>
      <point x="161" y="-164"/>
      <point x="145" y="-101"/>
      <point x="134" y="-38" type="curve"/>
      <point x="75" y="-38" type="line"/>
      <point x="33" y="-108"/>
      <point x="-7" y="-165"/>
      <point x="-66" y="-230" type="curve"/>
    </contour>
  </outline>
</glyph>
<glyph name="lowlinecomb" format="2">
  <unicode hex="0332"/>
  <anchor x="-258" y="0" name="_bottom"/>
  <anchor x="-279" y="-138" name="bottom"/>
  <outline>
    <contour>
      <point x="-497" y="-138" type="line"/>
      <point x="-78" y="-138" type="line"/>
      <point x="-66" y="-79" type="line"/>
      <point x="-485" y="-79" type="line"/>
    </contour>
  </outline>
</glyph>
<glyph name="doublemacroncomb" format="2">
  <unicode hex="035E"/>
  <anchor x="57" y="536" name="_top"/>
  <anchor x="81" y="665" name="top"/>
  <outline>
    <contour>
      <point x="-224" y="606" type="line"/>
      <point x="367" y="606" type="line"/>
      <point x="380" y="665" type="line"/>
      <point x="-211" y="665" type="line"/>
    </contour>
  </outline>
</glyph>
<glyph name="tonos" format="2">
  <advance width="577"/>
  <unicode hex="0384"/>
  <anchor x="316" y="536" name="_top"/>
  <outline>
    <contour>
      <point x="280" y="606" type="line"/>
      <point x="313" y="606" type="line"/>
      <point x="358" y="651"/>
      <point x="435" y="746"/>
      <point x="450" y="784" type="curve"/>
      <point x="452" y="796" type="line"/>
      <point x="362" y="796" type="line"/>
      <point x="346" y="745"/>
      <point x="307" y="664"/>
      <point x="282" y="621" type="curve"/>
    </contour>
  </outline>
</glyph>
<glyph name="uni03FC" format="2">
  <advance width="610"/>
  <unicode hex="03FC"/>
  <anchor x="197" y="-240" name="bottom"/>
  <anchor x="372" y="536" name="top"/>
  <outline>
    <contour>
      <point x="-75" y="-127" type="line"/>
      <point x="281" y="-127" type="line"/>
      <point x="290" y="-80" type="line"/>
      <point x="-66" y="-80" type="line"/>
    </contour>
    <component base="rho"/>
  </outline>
</glyph>
<glyph name="uni0463" format="2">
  <advance width="528"/>
  <unicode hex="0463"/>
  <anchor x="207" y="0" name="bottom"/>
  <anchor x="369" y="760" name="top"/>
  <outline>
    <contour>
      <point x="269" y="-10" type="curve" smooth="yes"/>
      <point x="393" y="-10"/>
      <point x="485" y="51"/>
      <point x="485" y="168" type="curve" smooth="yes"/>
      <point x="485" y="253"/>
      <point x="426" y="309"/>
      <point x="292" y="309" type="curve" smooth="yes"/>
      <point x="271" y="309"/>
      <point x="232" y="307"/>
      <point x="191" y="304" type="curve"/>
      <point x="224" y="461" type="line"/>
      <point x="371" y="461" type="line"/>
      <point x="381" y="508" type="line"/>
      <point x="234" y="508" type="line"/>
      <point x="288" y="760" type="line"/>
      <point x="103" y="760" type="line"/>
      <point x="94" y="718" type="line"/>
      <point x="102" y="718" type="line" smooth="yes"/>
      <point x="140" y="718"/>
      <point x="172" y="711"/>
      <point x="172" y="671" type="curve" smooth="yes"/>
      <point x="172" y="665"/>
      <point x="170" y="645"/>
      <point x="166" y="626" type="curve" smooth="yes"/>
      <point x="141" y="508" type="line"/>
      <point x="46" y="508" type="line"/>
      <point x="36" y="461" type="line"/>
      <point x="131" y="461" type="line"/>
      <point x="87" y="249" type="line" smooth="yes"/>
      <point x="79" y="211"/>
      <point x="72" y="165"/>
      <point x="72" y="133" type="curve" smooth="yes"/>
      <point x="72" y="35"/>
      <point x="138" y="-10"/>
    </contour>
    <contour>
      <point x="273" y="39" type="curve" smooth="yes"/>
      <point x="206" y="39"/>
      <point x="168" y="75"/>
      <point x="168" y="147" type="curve" smooth="yes"/>
      <point x="168" y="175"/>
      <point x="176" y="228"/>
      <point x="181" y="253" type="curve"/>
      <point x="200" y="254"/>
      <point x="234" y="257"/>
      <point x="277" y="257" type="curve" smooth="yes"/>
      <point x="349" y="257"/>
      <point x="386" y="224"/>
      <point x="386" y="164" type="curve" smooth="yes"/>
      <point x="386" y="103"/>
      <point x="349" y="39"/>
    </contour>
  </outline>
</glyph>
<glyph name="uni048E" format="2">
  <advance width="620"/>
  <unicode hex="048E"/>
  <anchor x="253" y="0" name="bottom"/>
  <anchor x="405" y="714" name="top"/>
  <anchor x="695" y="714" name="topright"/>
  <outline>
    <contour>
      <point x="503" y="208" type="line"/>
      <point x="543" y="235" type="line"/>
      <point x="387" y="458" type="line"/>
      <point x="347" y="431" type="line"/>
    </contour>
    <component base="P"/>
  </outline>
</glyph>
<glyph name="uni048F" format="2">
  <advance width="577"/>
  <unicode hex="048F"/>
  <anchor x="71" y="-240" name="bottom"/>
  <anchor x="346" y="536" name="top"/>
  <anchor x="594" y="536" name="topright"/>
  <outline>
    <contour>
      <point x="400" y="-76" type="line"/>
      <point x="440" y="-49" type="line"/>
      <point x="284" y="174" type="line"/>
      <point x="244" y="147" type="line"/>
    </contour>
    <component base="p"/>
  </outline>
</glyph>
<glyph name="uni04B0" format="2">
  <advance width="625"/>
  <unicode hex="04B0"/>
  <anchor x="256" y="0" name="bottom"/>
  <anchor x="408" y="714" name="top"/>
  <anchor x="700" y="714" name="topright"/>
  <outline>
    <contour>
      <point x="108" y="199" type="line"/>
      <point x="489" y="199" type="line"/>
      <point x="499" y="248" type="line"/>
      <point x="118" y="248" type="line"/>
    </contour>
    <component base="Y"/>
  </outline>
</glyph>
<glyph name="uni04B1" format="2">
  <advance width="550"/>
  <unicode hex="04B1"/>
  <anchor x="167" y="-240" name="bottom"/>
  <anchor x="332" y="536" name="top"/>
  <outline>
    <contour>
      <point x="39" y="-47" type="line"/>
      <point x="388" y="-47" type="line"/>
      <point x="398" y="0" type="line"/>
      <point x="49" y="0" type="line"/>
    </contour>
    <component base="uni04AF"/>
  </outline>
</glyph>
<glyph name="uni04BF" format="2">
  <advance width="600"/>
  <unicode hex="04BF"/>
  <anchor x="198" y="-210" name="bottom"/>
  <anchor x="357" y="536" name="top"/>
  <outline>
    <contour>
      <point x="261" y="-210" type="curve"/>
      <point x="307" y="-210" type="line"/>
      <point x="332" y="-90"/>
      <point x="345" y="-41"/>
      <point x="394" y="-5" type="curve"/>
      <point x="229" y="24" type="line"/>
      <point x="264" y="-5"/>
      <point x="279" y="-36"/>
      <point x="279" y="-85" type="curve" smooth="yes"/>
      <point x="279" y="-117"/>
      <point x="272" y="-157"/>
    </contour>
    <component base="uni04BD"/>
  </outline>
</glyph>
<glyph name="uni04FE" format="2">
  <advance width="660"/>
  <unicode hex="04FE"/>
  <anchor x="273" y="0" name="bottom"/>
  <anchor x="425" y="714" name="top"/>
  <anchor x="735" y="714" name="topright"/>
  <outline>
    <contour>
      <point x="95" y="350" type="line"/>
      <point x="601" y="350" type="line"/>
      <point x="611" y="399" type="line"/>
      <point x="105" y="399" type="line"/>
    </contour>
    <component base="X"/>
  </outline>
</glyph>
<glyph name="uni051E" format="2">
  <advance width="700"/>
  <unicode hex="051E"/>
  <anchor x="293" y="0" name="bottom"/>
  <anchor x="445" y="714" name="top"/>
  <outline>
    <contour>
      <point x="574" y="427" type="line"/>
      <point x="604" y="466" type="line"/>
      <point x="395" y="622" type="line"/>
      <point x="366" y="584" type="line"/>
    </contour>
    <component base="afii10028"/>
  </outline>
</glyph>
<glyph name="uni1D09" format="2">
  <advance width="299"/>
  <unicode hex="1D09"/>
  <anchor x="54" y="-183" name="bottom"/>
  <anchor x="207" y="536" name="top"/>
  <outline>
    <contour>
      <point x="-22" y="0" type="line"/>
      <point x="215" y="0" type="line"/>
      <point x="224" y="42" type="line"/>
      <point x="205" y="42" type="line" smooth="yes"/>
      <point x="178" y="42"/>
      <point x="160" y="45"/>
      <point x="160" y="68" type="curve" smooth="yes"/>
      <point x="160" y="72"/>
      <point x="162" y="82"/>
      <point x="163" y="88" type="curve" smooth="yes"/>
      <point x="239" y="443" type="line" smooth="yes"/>
      <point x="248" y="487"/>
      <point x="273" y="494"/>
      <point x="302" y="494" type="curve" smooth="yes"/>
      <point x="320" y="494" type="line"/>
      <point x="330" y="536" type="line"/>
      <point x="94" y="536" type="line"/>
      <point x="84" y="494" type="line"/>
      <point x="104" y="494" type="line" smooth="yes"/>
      <point x="130" y="494"/>
      <point x="149" y="491"/>
      <point x="149" y="468" type="curve" smooth="yes"/>
      <point x="149" y="464"/>
      <point x="147" y="453"/>
      <point x="146" y="447" type="curve" smooth="yes"/>
      <point x="70" y="93" type="line" smooth="yes"/>
      <point x="60" y="48"/>
      <point x="34" y="42"/>
      <point x="5" y="42" type="curve" smooth="yes"/>
      <point x="-13" y="42" type="line"/>
    </contour>
    <contour>
      <point x="72" y="-183" type="curve" smooth="yes"/>
      <point x="101" y="-183"/>
      <point x="132" y="-165"/>
      <point x="132" y="-113" type="curve" smooth="yes"/>
      <point x="132" y="-76"/>
      <point x="108" y="-58"/>
      <point x="76" y="-58" type="curve" smooth="yes"/>
      <point x="40" y="-58"/>
      <point x="16" y="-86"/>
      <point x="16" y="-128" type="curve" smooth="yes"/>
      <point x="16" y="-165"/>
      <point x="39" y="-183"/>
    </contour>
  </outline>
</glyph>
<glyph name="uni1D0C" format="2">
  <advance width="484"/>
  <unicode hex="1D0C"/>
  <anchor x="185" y="0" name="bottom"/>
  <anchor x="299" y="536" name="top"/>
  <outline>
    <contour>
      <point x="17" y="172" type="line"/>
      <point x="328" y="326" type="line"/>
      <point x="340" y="384" type="line"/>
      <point x="29" y="228" type="line"/>
    </contour>
    <component base="uni029F" xOffset="-8"/>
  </outline>
</glyph>
<glyph name="uni1D13" format="2">
  <advance width="614"/>
  <unicode hex="1D13"/>
  <anchor x="250" y="0" name="bottom"/>
  <anchor x="364" y="536" name="top"/>
  <outline>
    <contour>
      <point x="617" y="-17" type="line"/>
      <point x="617" y="42" type="line"/>
      <point x="1" y="552" type="line"/>
      <point x="1" y="493" type="line"/>
    </contour>
    <component base="uni1D11" xOffset="1"/>
  </outline>
</glyph>
<glyph name="uni1D24" format="2">
  <advance width="437"/>
  <unicode hex="1D24"/>
  <anchor x="162" y="0" name="bottom"/>
  <anchor x="276" y="536" name="top"/>
  <outline>
    <contour>
      <point x="183" y="-8" type="curve" smooth="yes"/>
      <point x="279" y="-8"/>
      <point x="358" y="40"/>
      <point x="358" y="80" type="curve" smooth="yes"/>
      <point x="358" y="94"/>
      <point x="345" y="107"/>
      <point x="333" y="114" type="curve"/>
      <point x="296" y="78"/>
      <point x="245" y="47"/>
      <point x="185" y="47" type="curve" smooth="yes"/>
      <point x="135" y="47"/>
      <point x="108" y="79"/>
      <point x="108" y="117" type="curve" smooth="yes"/>
      <point x="108" y="168"/>
      <point x="137" y="204"/>
      <point x="243" y="243" type="curve" smooth="yes"/>
      <point x="355" y="284"/>
      <point x="422" y="342"/>
      <point x="422" y="420" type="curve" smooth="yes"/>
      <point x="422" y="490"/>
      <point x="369" y="543"/>
      <point x="270" y="543" type="curve" smooth="yes"/>
      <point x="156" y="543"/>
      <point x="107" y="483"/>
      <point x="107" y="443" type="curve" smooth="yes"/>
      <point x="107" y="411"/>
      <point x="138" y="398"/>
      <point x="179" y="398" type="curve"/>
      <point x="194" y="463"/>
      <point x="221" y="498"/>
      <point x="262" y="498" type="curve" smooth="yes"/>
      <point x="299" y="498"/>
      <point x="330" y="475"/>
      <point x="330" y="429" type="curve" smooth="yes"/>
      <point x="330" y="354"/>
      <point x="251" y="328"/>
      <point x="210" y="313" type="curve" smooth="yes"/>
      <point x="53" y="254"/>
      <point x="13" y="202"/>
      <point x="13" y="119" type="curve" smooth="yes"/>
      <point x="13" y="57"/>
      <point x="56" y="-8"/>
    </contour>
  </outline>
</glyph>
<glyph name="uni1D7A" format="2">
  <advance width="930"/>
  <unicode hex="1D7A"/>
  <anchor x="127" y="0" name="bottom_1"/>
  <anchor x="574" y="0" name="bottom_2"/>
  <anchor x="241" y="268" name="center_1"/>
  <anchor x="688" y="268" name="center_2"/>
  <anchor x="267" y="659" name="top_1"/>
  <anchor x="736" y="760" name="top_2"/>
  <anchor x="405" y="536" name="topright_1"/>
  <anchor x="1015" y="760" name="topright_2"/>
  <outline>
    <contour>
      <point x="0" y="-58" type="line"/>
      <point x="70" y="-58" type="line"/>
      <point x="795" y="760" type="line"/>
      <point x="727" y="760" type="line"/>
    </contour>
    <component base="t"/>
    <component base="h" xOffset="331"/>
  </outline>
</glyph>
<glyph name="uni1D7C" format="2">
  <advance width="334"/>
  <unicode hex="1D7C"/>
  <anchor x="160" y="0" name="bottom"/>
  <anchor x="214" y="536" name="top"/>
  <outline>
    <contour>
      <point x="12" y="262" type="line"/>
      <point x="279" y="262" type="line"/>
      <point x="289" y="308" type="line"/>
      <point x="22" y="308" type="line"/>
    </contour>
    <component base="iota"/>
  </outline>
</glyph>
<glyph name="uni1D7D" format="2">
  <advance width="577"/>
  <unicode hex="1D7D"/>
  <anchor x="71" y="-240" name="bottom"/>
  <anchor x="346" y="536" name="top"/>
  <anchor x="594" y="536" name="topright"/>
  <outline>
    <contour>
      <point x="12" y="262" type="line"/>
      <point x="589" y="262" type="line"/>
      <point x="599" y="308" type="line"/>
      <point x="22" y="308" type="line"/>
    </contour>
    <component base="p"/>
  </outline>
</glyph>
<glyph name="uni1D7F" format="2">
  <advance width="574"/>
  <unicode hex="1D7F"/>
  <anchor x="233" y="0" name="bottom"/>
  <anchor x="337" y="536" name="top"/>
  <outline>
    <contour>
      <point x="1" y="262" type="line"/>
      <point x="571" y="262" type="line"/>
      <point x="581" y="308" type="line"/>
      <point x="11" y="308" type="line"/>
    </contour>
    <component base="uni028A"/>
  </outline>
</glyph>
<glyph name="uni1D94" format="2">
  <advance width="476"/>
  <unicode hex="1D94"/>
  <anchor x="181" y="0" name="bottom"/>
  <anchor x="295" y="536" name="top"/>
  <outline>
    <contour>
      <point x="54" y="-197" type="curve" smooth="yes"/>
      <point x="95" y="-197"/>
      <point x="132" y="-174"/>
      <point x="132" y="-130" type="curve" smooth="yes"/>
      <point x="132" y="-120"/>
      <point x="129" y="-112"/>
      <point x="124" y="-105" type="curve"/>
      <point x="106" y="-116"/>
      <point x="91" y="-121"/>
      <point x="69" y="-121" type="curve" smooth="yes"/>
      <point x="42" y="-121"/>
      <point x="23" y="-110"/>
      <point x="23" y="-77" type="curve" smooth="yes"/>
      <point x="23" y="-69"/>
      <point x="25" y="-60"/>
      <point x="27" y="-49" type="curve" smooth="yes"/>
      <point x="45" y="41" type="line"/>
      <point x="3" y="103" type="line"/>
      <point x="-28" y="-49" type="line" smooth="yes"/>
      <point x="-33" y="-72"/>
      <point x="-36" y="-93"/>
      <point x="-36" y="-102" type="curve" smooth="yes"/>
      <point x="-36" y="-166"/>
      <point x="-12" y="-197"/>
    </contour>
    <component base="afii10073"/>
  </outline>
</glyph>
<glyph name="uni1E10" format="2">
  <advance width="725"/>
  <unicode hex="1E10"/>
  <anchor x="259" y="-240" name="bottom"/>
  <anchor x="458" y="714" name="top"/>
  <anchor x="401" y="357" name="center"/>
  <anchor x="800" y="714" name="topright"/>
  <outline>
    <contour>
      <point x="231" y="-240" type="curve" smooth="yes"/>
      <point x="319" y="-240"/>
      <point x="390" y="-203"/>
      <point x="390" y="-117" type="curve" smooth="yes"/>
      <point x="390" y="-74"/>
      <point x="358" y="-41"/>
      <point x="310" y="-34" type="curve"/>
      <point x="329" y="9" type="line"/>
      <point x="282" y="9" type="line"/>
      <point x="244" y="-69" type="line"/>
      <point x="282" y="-72"/>
      <point x="308" y="-93"/>
      <point x="308" y="-125" type="curve" smooth="yes"/>
      <point x="308" y="-168"/>
      <point x="275" y="-186"/>
      <point x="234" y="-186" type="curve" smooth="yes"/>
      <point x="216" y="-186"/>
      <point x="190" y="-183"/>
      <point x="167" y="-178" type="curve"/>
      <point x="156" y="-229" type="line"/>
      <point x="179" y="-236"/>
      <point x="210" y="-240"/>
    </contour>
    <component base="D"/>
  </outline>
</glyph>
<glyph name="uni1FCE" format="2">
  <advance width="250"/>
  <unicode hex="1FCE"/>
  <anchor x="173" y="536" name="_top"/>
  <anchor x="197" y="724" name="top"/>
  <outline>
    <contour>
      <point x="33" y="547" type="line"/>
      <point x="132" y="555"/>
      <point x="179" y="599"/>
      <point x="179" y="664" type="curve"/>
      <point x="179" y="705"/>
      <point x="150" y="724"/>
      <point x="116" y="724" type="curve" smooth="yes"/>
      <point x="89" y="724"/>
      <point x="66" y="710"/>
      <point x="66" y="683" type="curve" smooth="yes"/>
      <point x="66" y="640"/>
      <point x="118" y="641"/>
      <point x="118" y="626" type="curve" smooth="yes"/>
      <point x="118" y="601"/>
      <point x="90" y="587"/>
      <point x="36" y="580" type="curve"/>
    </contour>
    <contour>
      <point x="198" y="560" type="line"/>
      <point x="231" y="560" type="line"/>
      <point x="284" y="608"/>
      <point x="338" y="669"/>
      <point x="354" y="702" type="curve"/>
      <point x="356" y="714" type="line"/>
      <point x="266" y="714" type="line"/>
      <point x="253" y="678"/>
      <point x="225" y="618"/>
      <point x="200" y="575" type="curve"/>
    </contour>
  </outline>
</glyph>
<glyph name="uni1FCF" format="2">
  <advance width="400"/>
  <unicode hex="1FCF"/>
  <anchor x="249" y="536" name="_top"/>
  <anchor x="289" y="863" name="top"/>
  <outline>
    <contour>
      <point x="100" y="760" type="curve"/>
      <point x="145" y="760" type="line"/>
      <point x="154" y="779"/>
      <point x="163" y="798"/>
      <point x="200" y="798" type="curve" smooth="yes"/>
      <point x="244" y="798"/>
      <point x="274" y="750"/>
      <point x="349" y="750" type="curve" smooth="yes"/>
      <point x="420" y="750"/>
      <point x="457" y="792"/>
      <point x="474" y="853" type="curve"/>
      <point x="429" y="853" type="line"/>
      <point x="419" y="826"/>
      <point x="403" y="815"/>
      <point x="374" y="815" type="curve" smooth="yes"/>
      <point x="331" y="815"/>
      <point x="299" y="863"/>
      <point x="226" y="863" type="curve" smooth="yes"/>
      <point x="158" y="863"/>
      <point x="117" y="813"/>
    </contour>
    <contour>
      <point x="186" y="569" type="line"/>
      <point x="282" y="571"/>
      <point x="325" y="607"/>
      <point x="325" y="668" type="curve" smooth="yes"/>
      <point x="325" y="706"/>
      <point x="297" y="724"/>
      <point x="265" y="724" type="curve" smooth="yes"/>
      <point x="239" y="724"/>
      <point x="217" y="711"/>
      <point x="217" y="686" type="curve" smooth="yes"/>
      <point x="217" y="646"/>
      <point x="267" y="647"/>
      <point x="267" y="633" type="curve" smooth="yes"/>
      <point x="267" y="609"/>
      <point x="234" y="602"/>
      <point x="189" y="600" type="curve"/>
    </contour>
  </outline>
</glyph>
<glyph name="uni1FDD" format="2">
  <advance width="250"/>
  <unicode hex="1FDD"/>
  <anchor x="169" y="536" name="_top"/>
  <anchor x="192" y="724" name="top"/>
  <outline>
    <contour>
      <point x="153" y="548" type="curve"/>
      <point x="159" y="579" type="line"/>
      <point x="120" y="587"/>
      <point x="101" y="597"/>
      <point x="101" y="610" type="curve" smooth="yes"/>
      <point x="101" y="648"/>
      <point x="170" y="634"/>
      <point x="170" y="684" type="curve" smooth="yes"/>
      <point x="170" y="710"/>
      <point x="154" y="724"/>
      <point x="128" y="724" type="curve" smooth="yes"/>
      <point x="90" y="724"/>
      <point x="57" y="695"/>
      <point x="57" y="633" type="curve" smooth="yes"/>
      <point x="57" y="585"/>
      <point x="78" y="561"/>
    </contour>
    <contour>
      <point x="282" y="560" type="curve"/>
      <point x="320" y="560" type="line"/>
      <point x="323" y="573" type="line"/>
      <point x="308" y="607"/>
      <point x="294" y="683"/>
      <point x="291" y="714" type="curve"/>
      <point x="196" y="714" type="line"/>
      <point x="193" y="704" type="line"/>
      <point x="210" y="666"/>
      <point x="244" y="604"/>
    </contour>
  </outline>
</glyph>
<glyph name="uni1FDE" format="2">
  <advance width="250"/>
  <unicode hex="1FDE"/>
  <anchor x="195" y="536" name="_top"/>
  <anchor x="219" y="724" name="top"/>
  <outline>
    <contour>
      <point x="198" y="560" type="line"/>
      <point x="231" y="560" type="line"/>
      <point x="284" y="608"/>
      <point x="338" y="669"/>
      <point x="354" y="702" type="curve"/>
      <point x="356" y="714" type="line"/>
      <point x="266" y="714" type="line"/>
      <point x="253" y="678"/>
      <point x="225" y="618"/>
      <point x="200" y="575" type="curve"/>
    </contour>
    <contour>
      <point x="173" y="548" type="curve"/>
      <point x="179" y="579" type="line"/>
      <point x="140" y="587"/>
      <point x="121" y="597"/>
      <point x="121" y="610" type="curve"/>
      <point x="121" y="648"/>
      <point x="190" y="634"/>
      <point x="190" y="684" type="curve" smooth="yes"/>
      <point x="190" y="710"/>
      <point x="174" y="724"/>
      <point x="148" y="724" type="curve" smooth="yes"/>
      <point x="110" y="724"/>
      <point x="77" y="695"/>
      <point x="77" y="633" type="curve" smooth="yes"/>
      <point x="77" y="585"/>
      <point x="98" y="561"/>
    </contour>
  </outline>
</glyph>
<glyph name="uni1FDF" format="2">
  <advance width="400"/>
  <unicode hex="1FDF"/>
  <anchor x="249" y="536" name="_top"/>
  <anchor x="289" y="863" name="top"/>
  <outline>
    <contour>
      <point x="100" y="760" type="curve"/>
      <point x="145" y="760" type="line"/>
      <point x="154" y="779"/>
      <point x="163" y="798"/>
      <point x="200" y="798" type="curve" smooth="yes"/>
      <point x="244" y="798"/>
      <point x="274" y="750"/>
      <point x="349" y="750" type="curve" smooth="yes"/>
      <point x="420" y="750"/>
      <point x="457" y="792"/>
      <point x="474" y="853" type="curve"/>
      <point x="429" y="853" type="line"/>
      <point x="419" y="826"/>
      <point x="403" y="815"/>
      <point x="374" y="815" type="curve"/>
      <point x="331" y="815"/>
      <point x="299" y="863"/>
      <point x="226" y="863" type="curve" smooth="yes"/>
      <point x="158" y="863"/>
      <point x="117" y="813"/>
    </contour>
    <contour>
      <point x="293" y="569" type="curve"/>
      <point x="299" y="600" type="line"/>
      <point x="267" y="605"/>
      <point x="242" y="612"/>
      <point x="242" y="628" type="curve"/>
      <point x="242" y="663"/>
      <point x="310" y="634"/>
      <point x="310" y="684" type="curve" smooth="yes"/>
      <point x="310" y="710"/>
      <point x="294" y="724"/>
      <point x="268" y="724" type="curve" smooth="yes"/>
      <point x="230" y="724"/>
      <point x="197" y="695"/>
      <point x="197" y="651" type="curve" smooth="yes"/>
      <point x="197" y="610"/>
      <point x="215" y="579"/>
    </contour>
  </outline>
</glyph>
<glyph name="uni1FEF" format="2">
  <advance width="254"/>
  <unicode hex="1FEF"/>
  <anchor x="152" y="536" name="_top"/>
  <anchor x="185" y="760" name="top"/>
  <outline>
    <contour>
      <point x="202" y="606" type="curve"/>
      <point x="240" y="606" type="line"/>
      <point x="243" y="619" type="line"/>
      <point x="228" y="653"/>
      <point x="220" y="729"/>
      <point x="221" y="760" type="curve"/>
      <point x="126" y="760" type="line"/>
      <point x="123" y="750" type="line"/>
      <point x="136" y="712"/>
      <point x="164" y="650"/>
    </contour>
  </outline>
</glyph>
<glyph name="uni1FFD" format="2">
  <advance width="254"/>
  <unicode hex="1FFD"/>
  <anchor x="176" y="536" name="_top"/>
  <anchor x="209" y="760" name="top"/>
  <outline>
    <contour>
      <point x="128" y="606" type="line"/>
      <point x="161" y="606" type="line"/>
      <point x="214" y="654"/>
      <point x="268" y="715"/>
      <point x="284" y="748" type="curve"/>
      <point x="286" y="760" type="line"/>
      <point x="196" y="760" type="line"/>
      <point x="183" y="724"/>
      <point x="155" y="664"/>
      <point x="130" y="621" type="curve"/>
    </contour>
  </outline>
</glyph>
<glyph name="parenleftsuperior" format="2">
  <advance width="250"/>
  <unicode hex="207D"/>
  <outline>
    <contour>
      <point x="206" y="197" type="curve"/>
      <point x="216" y="241" type="line"/>
      <point x="164" y="281"/>
      <point x="146" y="373"/>
      <point x="146" y="429" type="curve" smooth="yes"/>
      <point x="146" y="572"/>
      <point x="196" y="678"/>
      <point x="323" y="747" type="curve" smooth="yes"/>
      <point x="332" y="789" type="line"/>
      <point x="154" y="755"/>
      <point x="59" y="622"/>
      <point x="59" y="426" type="curve" smooth="yes"/>
      <point x="59" y="327"/>
      <point x="105" y="236"/>
    </contour>
  </outline>
</glyph>
<glyph name="parenrightsuperior" format="2">
  <advance width="250"/>
  <unicode hex="207E"/>
  <outline>
    <contour>
      <point x="-1" y="196" type="line"/>
      <point x="176" y="230"/>
      <point x="272" y="364"/>
      <point x="272" y="560" type="curve" smooth="yes"/>
      <point x="272" y="659"/>
      <point x="224" y="750"/>
      <point x="124" y="788" type="curve"/>
      <point x="115" y="744" type="line"/>
      <point x="166" y="704"/>
      <point x="184" y="612"/>
      <point x="184" y="556" type="curve" smooth="yes"/>
      <point x="184" y="413"/>
      <point x="135" y="307"/>
      <point x="8" y="238" type="curve"/>
    </contour>
  </outline>
</glyph>
<glyph name="parenrightinferior" format="2">
  <advance width="250"/>
  <unicode hex="208E"/>
  <outline>
    <contour>
      <point x="-111" y="-289" type="line"/>
      <point x="66" y="-255"/>
      <point x="162" y="-121"/>
      <point x="162" y="75" type="curve" smooth="yes"/>
      <point x="162" y="174"/>
      <point x="114" y="265"/>
      <point x="14" y="303" type="curve"/>
      <point x="5" y="259" type="line"/>
      <point x="56" y="219"/>
      <point x="74" y="127"/>
      <point x="74" y="71" type="curve" smooth="yes"/>
      <point x="74" y="-72"/>
      <point x="25" y="-178"/>
      <point x="-102" y="-247" type="curve"/>
    </contour>
  </outline>
</glyph>
<glyph name="uni20A9" format="2">
  <advance width="1045"/>
  <unicode hex="20A9"/>
  <anchor x="466" y="0" name="bottom"/>
  <anchor x="618" y="714" name="top"/>
  <anchor x="1120" y="714" name="topright"/>
  <outline>
    <contour>
      <point x="67" y="402" type="line"/>
      <point x="1033" y="402" type="line"/>
      <point x="1043" y="449" type="line"/>
      <point x="77" y="449" type="line"/>
    </contour>
    <contour>
      <point x="42" y="285" type="line"/>
      <point x="1008" y="285" type="line"/>
      <point x="1018" y="332" type="line"/>
      <point x="52" y="332" type="line"/>
    </contour>
    <component base="W"/>
  </outline>
</glyph>
<glyph name="uni20B4" format="2">
  <advance width="550"/>
  <unicode hex="20B4"/>
  <anchor x="221" y="0" name="bottom"/>
  <anchor x="373" y="714" name="top"/>
  <outline>
    <contour>
      <point x="-5" y="268" type="line"/>
      <point x="537" y="268" type="line"/>
      <point x="547" y="315" type="line"/>
      <point x="5" y="315" type="line"/>
    </contour>
    <contour>
      <point x="28" y="420" type="line"/>
      <point x="570" y="420" type="line"/>
      <point x="580" y="467" type="line"/>
      <point x="38" y="467" type="line"/>
    </contour>
    <component base="uni01A7" xOffset="3"/>
  </outline>
</glyph>
<glyph name="uni20B5" format="2">
  <advance width="627"/>
  <unicode hex="20B5"/>
  <anchor x="307" y="0" name="bottom"/>
  <anchor x="461" y="714" name="top"/>
  <anchor x="702" y="714" name="topright"/>
  <outline>
    <contour>
      <point x="267" y="-79" type="line"/>
      <point x="317" y="-79" type="line"/>
      <point x="496" y="760" type="line"/>
      <point x="446" y="760" type="line"/>
    </contour>
    <component base="C"/>
  </outline>
</glyph>
<glyph name="turnedSansSerifL" format="2">
  <advance width="601"/>
  <unicode hex="2142"/>
  <outline>
    <contour>
      <point x="213" y="0" type="line"/>
      <point x="504" y="0" type="line"/>
      <point x="512" y="42" type="line"/>
      <point x="499" y="42" type="line" smooth="yes"/>
      <point x="454" y="42"/>
      <point x="419" y="51"/>
      <point x="433" y="114" type="curve" smooth="yes"/>
      <point x="536" y="600" type="line" smooth="yes"/>
      <point x="549" y="663"/>
      <point x="588" y="672"/>
      <point x="633" y="672" type="curve" smooth="yes"/>
      <point x="646" y="672" type="line"/>
      <point x="655" y="714" type="line"/>
      <point x="119" y="714" type="line"/>
      <point x="67" y="499" type="line"/>
      <point x="119" y="499" type="line"/>
      <point x="145" y="574" type="line" smooth="yes"/>
      <point x="159" y="617"/>
      <point x="192" y="664"/>
      <point x="252" y="664" type="curve" smooth="yes"/>
      <point x="449" y="664" type="line"/>
      <point x="331" y="110" type="line" smooth="yes"/>
      <point x="318" y="51"/>
      <point x="279" y="42"/>
      <point x="234" y="42" type="curve" smooth="yes"/>
      <point x="221" y="42" type="line"/>
    </contour>
  </outline>
</glyph>
<glyph name="reversedSansSerifL" format="2">
  <advance width="623"/>
  <unicode hex="2143"/>
  <outline>
    <contour>
      <point x="-10" y="0" type="line"/>
      <point x="526" y="0" type="line"/>
      <point x="534" y="42" type="line"/>
      <point x="521" y="42" type="line" smooth="yes"/>
      <point x="476" y="42"/>
      <point x="441" y="51"/>
      <point x="455" y="114" type="curve" smooth="yes"/>
      <point x="558" y="600" type="line" smooth="yes"/>
      <point x="571" y="663"/>
      <point x="610" y="672"/>
      <point x="655" y="672" type="curve" smooth="yes"/>
      <point x="668" y="672" type="line"/>
      <point x="677" y="714" type="line"/>
      <point x="386" y="714" type="line"/>
      <point x="377" y="672" type="line"/>
      <point x="390" y="672" type="line" smooth="yes"/>
      <point x="435" y="672"/>
      <point x="470" y="663"/>
      <point x="458" y="604" type="curve" smooth="yes"/>
      <point x="340" y="50" type="line"/>
      <point x="143" y="50" type="line" smooth="yes"/>
      <point x="83" y="50"/>
      <point x="70" y="97"/>
      <point x="74" y="140" type="curve" smooth="yes"/>
      <point x="80" y="215" type="line"/>
      <point x="28" y="215" type="line"/>
    </contour>
  </outline>
</glyph>
<glyph name="uni2C62" format="2">
  <advance width="623"/>
  <unicode hex="2C62"/>
  <anchor x="255" y="0" name="bottom"/>
  <anchor x="407" y="714" name="top"/>
  <anchor x="350" y="357" name="center"/>
  <anchor x="698" y="714" name="topright"/>
  <outline>
    <contour>
      <point x="266" y="317" type="curve" smooth="yes"/>
      <point x="337" y="317"/>
      <point x="379" y="374"/>
      <point x="396" y="435" type="curve"/>
      <point x="351" y="435" type="line"/>
      <point x="341" y="408"/>
      <point x="330" y="382"/>
      <point x="291" y="382" type="curve" smooth="yes"/>
      <point x="252" y="382"/>
      <point x="198" y="445"/>
      <point x="148" y="445" type="curve" smooth="yes"/>
      <point x="76" y="445"/>
      <point x="34" y="388"/>
      <point x="17" y="327" type="curve"/>
      <point x="62" y="327" type="line"/>
      <point x="72" y="354"/>
      <point x="82" y="380"/>
      <point x="122" y="380" type="curve" smooth="yes"/>
      <point x="160" y="380"/>
      <point x="211" y="317"/>
    </contour>
    <component base="L"/>
  </outline>
</glyph>
<glyph name="uni2C66" format="2">
  <advance width="368"/>
  <unicode hex="2C66"/>
  <anchor x="83" y="-207" name="bottom"/>
  <anchor x="279" y="714" name="top"/>
  <anchor x="241" y="268" name="center"/>
  <anchor x="405" y="536" name="topright"/>
  <outline>
    <contour>
      <point x="73" y="-207" type="line"/>
      <point x="123" y="-207" type="line"/>
      <point x="419" y="714" type="line"/>
      <point x="369" y="714" type="line"/>
    </contour>
    <component base="t"/>
  </outline>
</glyph>
<glyph name="uni2DF5" format="2">
  <unicode hex="2DF5"/>
  <anchor x="57" y="536" name="_top"/>
  <anchor x="74" y="619" name="bottom"/>
  <anchor x="119" y="835" name="top"/>
  <outline>
    <contour>
      <point x="300" y="834" type="line"/>
      <point x="75" y="834" type="line" smooth="yes"/>
      <point x="-42" y="834"/>
      <point x="-89" y="758"/>
      <point x="-89" y="699" type="curve" smooth="yes"/>
      <point x="-89" y="643"/>
      <point x="-49" y="616"/>
      <point x="-1" y="616" type="curve" smooth="yes"/>
      <point x="53" y="616"/>
      <point x="77" y="642"/>
      <point x="77" y="660" type="curve" smooth="yes"/>
      <point x="77" y="664"/>
      <point x="75" y="668"/>
      <point x="72" y="670" type="curve"/>
      <point x="60" y="656"/>
      <point x="39" y="641"/>
      <point x="8" y="641" type="curve" smooth="yes"/>
      <point x="-25" y="641"/>
      <point x="-42" y="661"/>
      <point x="-42" y="696" type="curve" smooth="yes"/>
      <point x="-42" y="743"/>
      <point x="-12" y="816"/>
      <point x="70" y="816" type="curve" smooth="yes"/>
      <point x="165" y="816" type="line"/>
      <point x="132" y="664" type="line" smooth="yes"/>
      <point x="127" y="640"/>
      <point x="110" y="637"/>
      <point x="90" y="637" type="curve" smooth="yes"/>
      <point x="84" y="637" type="line"/>
      <point x="80" y="620" type="line"/>
      <point x="213" y="620" type="line"/>
      <point x="217" y="637" type="line"/>
      <point x="206" y="637" type="line" smooth="yes"/>
      <point x="187" y="637"/>
      <point x="169" y="640"/>
      <point x="174" y="664" type="curve" smooth="yes"/>
      <point x="207" y="816" type="line"/>
      <point x="244" y="816" type="line" smooth="yes"/>
      <point x="265" y="816"/>
      <point x="269" y="809"/>
      <point x="269" y="784" type="curve"/>
      <point x="268" y="770" type="line"/>
      <point x="290" y="770" type="line"/>
    </contour>
  </outline>
</glyph>
<glyph name="brackhalftopright" format="2">
  <advance width="360"/>
  <unicode hex="2E23"/>
  <outline>
    <contour>
      <point x="171" y="316" type="line"/>
      <point x="269" y="316" type="line"/>
      <point x="364" y="760" type="line"/>
      <point x="141" y="760" type="line"/>
      <point x="132" y="718" type="line"/>
      <point x="175" y="718" type="line" smooth="yes"/>
      <point x="220" y="718"/>
      <point x="255" y="708"/>
      <point x="242" y="646" type="curve" smooth="yes"/>
    </contour>
  </outline>
</glyph>
<glyph name="uni2E44" format="2">
  <advance width="314"/>
  <unicode hex="2E44"/>
  <outline>
    <contour>
      <point x="136" y="553" type="line"/>
      <point x="360" y="693" type="line"/>
      <point x="289" y="766" type="line"/>
      <point x="108" y="589" type="line"/>
    </contour>
    <contour>
      <point x="11" y="-55" type="line"/>
      <point x="235" y="85" type="line"/>
      <point x="164" y="158" type="line"/>
      <point x="-17" y="-19" type="line"/>
    </contour>
  </outline>
</glyph>
<glyph name="uniA742" format="2">
  <advance width="700"/>
  <unicode hex="A742"/>
  <anchor x="293" y="0" name="bottom"/>
  <anchor x="445" y="714" name="top"/>
  <anchor x="775" y="714" name="topright"/>
  <outline>
    <contour>
      <point x="323" y="113" type="line"/>
      <point x="594" y="285" type="line"/>
      <point x="573" y="324" type="line"/>
      <point x="302" y="153" type="line"/>
    </contour>
    <component base="K"/>
  </outline>
</glyph>
<glyph name="uniA744" format="2">
  <advance width="700"/>
  <unicode hex="A744"/>
  <anchor x="293" y="0" name="bottom"/>
  <anchor x="445" y="714" name="top"/>
  <anchor x="775" y="714" name="topright"/>
  <outline>
    <contour>
      <point x="325" y="113" type="line"/>
      <point x="596" y="285" type="line"/>
      <point x="575" y="324" type="line"/>
      <point x="304" y="153" type="line"/>
    </contour>
    <contour>
      <point x="95" y="547" type="line"/>
      <point x="386" y="547" type="line"/>
      <point x="398" y="596" type="line"/>
      <point x="107" y="596" type="line"/>
    </contour>
    <component base="K"/>
  </outline>
</glyph>
<glyph name="uniA745" format="2">
  <advance width="569"/>
  <unicode hex="A745"/>
  <anchor x="228" y="0" name="bottom"/>
  <anchor x="390" y="760" name="top"/>
  <anchor x="654" y="760" name="topright"/>
  <outline>
    <contour>
      <point x="242" y="81" type="line"/>
      <point x="509" y="248" type="line"/>
      <point x="488" y="283" type="line"/>
      <point x="221" y="117" type="line"/>
    </contour>
    <contour>
      <point x="76" y="593" type="line"/>
      <point x="367" y="593" type="line"/>
      <point x="379" y="640" type="line"/>
      <point x="88" y="640" type="line"/>
    </contour>
    <component base="k"/>
  </outline>
</glyph>
<glyph name="uniA748" format="2">
  <advance width="632"/>
  <unicode hex="A748"/>
  <anchor x="255" y="0" name="bottom"/>
  <anchor x="350" y="357" name="center"/>
  <anchor x="407" y="714" name="top"/>
  <anchor x="698" y="714" name="topright"/>
  <outline>
    <contour>
      <point x="100" y="547" type="line"/>
      <point x="391" y="547" type="line"/>
      <point x="401" y="596" type="line"/>
      <point x="110" y="596" type="line"/>
    </contour>
    <component base="L"/>
  </outline>
</glyph>
<glyph name="uniA74B" format="2">
  <advance width="574"/>
  <unicode hex="A74B"/>
  <anchor x="230" y="0" name="bottom"/>
  <anchor x="344" y="268" name="center"/>
  <anchor x="344" y="536" name="top"/>
  <anchor x="611" y="536" name="topright"/>
  <outline>
    <contour>
      <point x="-6" y="252" type="line"/>
      <point x="573" y="252" type="line"/>
      <point x="583" y="299" type="line"/>
      <point x="4" y="299" type="line"/>
    </contour>
    <component base="o"/>
  </outline>
</glyph>
<glyph name="uniA750" format="2">
  <advance width="604"/>
  <unicode hex="A750"/>
  <anchor x="128" y="0" name="bottom"/>
  <anchor x="405" y="714" name="top"/>
  <anchor x="695" y="714" name="topright"/>
  <outline>
    <contour>
      <point x="8" y="138" type="line"/>
      <point x="319" y="138" type="line"/>
      <point x="329" y="187" type="line"/>
      <point x="18" y="187" type="line"/>
    </contour>
    <component base="P"/>
  </outline>
</glyph>
<glyph name="uniA751" format="2">
  <advance width="577"/>
  <unicode hex="A751"/>
  <anchor x="71" y="-240" name="bottom"/>
  <anchor x="346" y="536" name="top"/>
  <anchor x="594" y="536" name="topright"/>
  <outline>
    <contour>
      <point x="-74" y="-119" type="line"/>
      <point x="239" y="-119" type="line"/>
      <point x="249" y="-72" type="line"/>
      <point x="-64" y="-72" type="line"/>
    </contour>
    <component base="p"/>
  </outline>
</glyph>
<glyph name="uniA757" format="2">
  <advance width="560"/>
  <unicode hex="A757"/>
  <anchor x="172" y="-240" name="bottom"/>
  <anchor x="337" y="536" name="top"/>
  <anchor x="597" y="536" name="topright"/>
  <outline>
    <contour>
      <point x="179" y="-119" type="line"/>
      <point x="493" y="-119" type="line"/>
      <point x="503" y="-72" type="line"/>
      <point x="189" y="-72" type="line"/>
    </contour>
    <component base="q"/>
  </outline>
</glyph>
<glyph name="uniA75F" format="2">
  <advance width="538"/>
  <unicode hex="A75F"/>
  <anchor x="212" y="0" name="bottom"/>
  <anchor x="326" y="536" name="top"/>
  <anchor x="575" y="536" name="topright"/>
  <outline>
    <contour>
      <point x="19" y="-50" type="line"/>
      <point x="73" y="-50" type="line"/>
      <point x="378" y="596" type="line"/>
      <point x="324" y="596" type="line"/>
    </contour>
    <component base="v"/>
  </outline>
</glyph>
<glyph name="uniA764" format="2">
  <advance width="604"/>
  <unicode hex="A764"/>
  <outline>
    <contour>
      <point x="-20" y="0" type="line"/>
      <point x="280" y="0" type="line"/>
      <point x="289" y="42" type="line"/>
      <point x="266" y="42" type="line" smooth="yes"/>
      <point x="224" y="42"/>
      <point x="194" y="48"/>
      <point x="194" y="82" type="curve" smooth="yes"/>
      <point x="194" y="88"/>
      <point x="196" y="102"/>
      <point x="198" y="110" type="curve" smooth="yes"/>
      <point x="207" y="154" type="line"/>
      <point x="281" y="154" type="line" smooth="yes"/>
      <point x="538" y="154"/>
      <point x="579" y="282"/>
      <point x="579" y="358" type="curve" smooth="yes"/>
      <point x="579" y="484"/>
      <point x="486" y="529"/>
      <point x="346" y="529" type="curve" smooth="yes"/>
      <point x="287" y="529" type="line"/>
      <point x="296" y="575" type="line"/>
      <point x="401" y="575" type="line"/>
      <point x="411" y="624" type="line"/>
      <point x="309" y="624" type="line"/>
      <point x="326" y="666"/>
      <point x="360" y="672"/>
      <point x="399" y="672" type="curve" smooth="yes"/>
      <point x="422" y="672" type="line"/>
      <point x="431" y="714" type="line"/>
      <point x="130" y="714" type="line"/>
      <point x="121" y="672" type="line"/>
      <point x="134" y="672" type="line" smooth="yes"/>
      <point x="161" y="672"/>
      <point x="205" y="667"/>
      <point x="205" y="624" type="curve"/>
      <point x="110" y="624" type="line"/>
      <point x="100" y="575" type="line"/>
      <point x="196" y="575" type="line"/>
      <point x="98" y="114" type="line" smooth="yes"/>
      <point x="85" y="51"/>
      <point x="46" y="42"/>
      <point x="2" y="42" type="curve" smooth="yes"/>
      <point x="-11" y="42" type="line"/>
    </contour>
    <contour>
      <point x="217" y="201" type="line"/>
      <point x="276" y="481" type="line"/>
      <point x="322" y="481" type="line" smooth="yes"/>
      <point x="417" y="481"/>
      <point x="473" y="454"/>
      <point x="473" y="357" type="curve" smooth="yes"/>
      <point x="473" y="242"/>
      <point x="425" y="201"/>
      <point x="270" y="201" type="curve" smooth="yes"/>
    </contour>
  </outline>
</glyph>
<glyph name="uniA767" format="2">
  <advance width="562"/>
  <unicode hex="A767"/>
  <anchor x="173" y="-240" name="bottom"/>
  <anchor x="386" y="760" name="top"/>
  <outline>
    <contour>
      <point x="-94" y="-119" type="line"/>
      <point x="219" y="-119" type="line"/>
      <point x="229" y="-72" type="line"/>
      <point x="-84" y="-72" type="line"/>
    </contour>
    <component base="thorn"/>
  </outline>
</glyph>
<glyph name="uniA793" format="2">
  <advance width="507"/>
  <unicode hex="A793"/>
  <anchor x="227" y="0" name="bottom"/>
  <anchor x="341" y="536" name="top"/>
  <anchor x="544" y="536" name="topright"/>
  <outline>
    <contour>
      <point x="-10" y="252" type="line"/>
      <point x="279" y="252" type="line"/>
      <point x="289" y="299" type="line"/>
      <point x="0" y="299" type="line"/>
    </contour>
    <component base="c" xOffset="20"/>
  </outline>
</glyph>
<glyph name="uniA7A0" format="2">
  <advance width="714"/>
  <unicode hex="A7A0"/>
  <anchor x="310" y="0" name="bottom"/>
  <anchor x="470" y="714" name="top"/>
  <anchor x="789" y="714" name="topright"/>
  <outline>
    <contour>
      <point x="-10" y="217" type="line"/>
      <point x="694" y="372" type="line"/>
      <point x="704" y="422" type="line"/>
      <point x="0" y="267" type="line"/>
    </contour>
    <component base="G"/>
  </outline>
</glyph>
<glyph name="uniA7A1" format="2">
  <advance width="556"/>
  <unicode hex="A7A1"/>
  <anchor x="170" y="-240" name="bottom"/>
  <anchor x="335" y="536" name="top"/>
  <anchor x="593" y="536" name="topright"/>
  <outline>
    <contour>
      <point x="21" y="290" type="line"/>
      <point x="569" y="391" type="line"/>
      <point x="579" y="433" type="line"/>
      <point x="31" y="332" type="line"/>
    </contour>
    <component base="g"/>
  </outline>
</glyph>
<glyph name="uniA7A3" format="2">
  <advance width="569"/>
  <unicode hex="A7A3"/>
  <anchor x="228" y="0" name="bottom"/>
  <anchor x="390" y="760" name="top"/>
  <anchor x="654" y="760" name="topright"/>
  <outline>
    <contour>
      <point x="1" y="87" type="line"/>
      <point x="533" y="183" type="line"/>
      <point x="542" y="225" type="line"/>
      <point x="10" y="129" type="line"/>
    </contour>
    <component base="k"/>
  </outline>
</glyph>
<glyph name="uniA7A4" format="2">
  <advance width="763"/>
  <unicode hex="A7A4"/>
  <anchor x="325" y="0" name="bottom"/>
  <anchor x="477" y="714" name="top"/>
  <anchor x="838" y="714" name="topright"/>
  <outline>
    <contour>
      <point x="42" y="265" type="line"/>
      <point x="777" y="427" type="line"/>
      <point x="787" y="477" type="line"/>
      <point x="52" y="315" type="line"/>
    </contour>
    <component base="N"/>
  </outline>
</glyph>
<glyph name="uniA7A5" format="2">
  <advance width="599"/>
  <unicode hex="A7A5"/>
  <anchor x="243" y="0" name="bottom"/>
  <anchor x="357" y="536" name="top"/>
  <anchor x="636" y="536" name="topright"/>
  <outline>
    <contour>
      <point x="18" y="183" type="line"/>
      <point x="572" y="284" type="line"/>
      <point x="582" y="326" type="line"/>
      <point x="28" y="225" type="line"/>
    </contour>
    <component base="n"/>
  </outline>
</glyph>
<glyph name="uniA7A6" format="2">
  <advance width="664"/>
  <unicode hex="A7A6"/>
  <anchor x="275" y="0" name="bottom"/>
  <anchor x="427" y="714" name="top"/>
  <anchor x="739" y="714" name="topright"/>
  <outline>
    <contour>
      <point x="70" y="420" type="line"/>
      <point x="700" y="553" type="line"/>
      <point x="710" y="603" type="line"/>
      <point x="80" y="470" type="line"/>
    </contour>
    <component base="R"/>
  </outline>
</glyph>
<glyph name="uniA7A7" format="2">
  <advance width="468"/>
  <unicode hex="A7A7"/>
  <anchor x="90" y="0" name="bottom"/>
  <anchor x="291" y="536" name="top"/>
  <anchor x="505" y="536" name="topright"/>
  <outline>
    <contour>
      <point x="15" y="187" type="line"/>
      <point x="343" y="252" type="line"/>
      <point x="353" y="295" type="line"/>
      <point x="25" y="230" type="line"/>
    </contour>
    <component base="r"/>
  </outline>
</glyph>
<glyph name="uniA7A9" format="2">
  <advance width="464"/>
  <unicode hex="A7A9"/>
  <anchor x="175" y="0" name="bottom"/>
  <anchor x="289" y="536" name="top"/>
  <anchor x="501" y="536" name="topright"/>
  <outline>
    <contour>
      <point x="62" y="224" type="line"/>
      <point x="406" y="296" type="line"/>
      <point x="416" y="339" type="line"/>
      <point x="72" y="267" type="line"/>
    </contour>
    <component base="s"/>
  </outline>
</glyph>
<glyph name="uniA7AE" format="2">
  <advance width="549"/>
  <unicode hex="A7AE"/>
  <guideline x="319" y="695" angle="78"/>
  <guideline x="118" y="649" angle="78"/>
  <outline>
    <contour>
      <point x="-19" y="0" type="line"/>
      <point x="455" y="0" type="line"/>
      <point x="495" y="160" type="line"/>
      <point x="446" y="160" type="line"/>
      <point x="434" y="127" type="line" smooth="yes"/>
      <point x="411" y="64"/>
      <point x="394" y="46"/>
      <point x="347" y="46" type="curve" smooth="yes"/>
      <point x="275" y="46" type="line"/>
      <point x="407" y="668" type="line"/>
      <point x="479" y="668" type="line" smooth="yes"/>
      <point x="521" y="668"/>
      <point x="533" y="653"/>
      <point x="533" y="606" type="curve" smooth="yes"/>
      <point x="533" y="600"/>
      <point x="532" y="581"/>
      <point x="530" y="554" type="curve"/>
      <point x="579" y="554" type="line"/>
      <point x="607" y="714" type="line"/>
      <point x="132" y="714" type="line"/>
      <point x="92" y="554" type="line"/>
      <point x="141" y="554" type="line"/>
      <point x="153" y="587" type="line" smooth="yes"/>
      <point x="176" y="650"/>
      <point x="194" y="668"/>
      <point x="240" y="668" type="curve" smooth="yes"/>
      <point x="313" y="668" type="line"/>
      <point x="181" y="46" type="line"/>
      <point x="108" y="46" type="line" smooth="yes"/>
      <point x="67" y="46"/>
      <point x="55" y="61"/>
      <point x="55" y="109" type="curve" smooth="yes"/>
      <point x="55" y="117"/>
      <point x="56" y="132"/>
      <point x="57" y="160" type="curve"/>
      <point x="8" y="160" type="line"/>
    </contour>
  </outline>
</glyph>
<glyph name="uniA7B8" format="2">
  <advance width="717"/>
  <unicode hex="A7B8"/>
  <anchor x="371" y="0" name="bottom"/>
  <anchor x="371" y="714" name="top"/>
  <anchor x="805" y="714" name="topright"/>
  <outline>
    <contour>
      <point x="32" y="-11" type="line"/>
      <point x="91" y="-11" type="line"/>
      <point x="783" y="726" type="line"/>
      <point x="725" y="726" type="line"/>
    </contour>
    <component base="U"/>
  </outline>
</glyph>
<glyph name="uniA7C8" format="2">
  <advance width="579"/>
  <unicode hex="A7C8"/>
  <anchor x="233" y="0" name="bottom"/>
  <anchor x="347" y="268" name="center"/>
  <anchor x="395" y="760" name="top"/>
  <anchor x="614" y="760" name="topright"/>
  <outline>
    <contour>
      <point x="86" y="248" type="line"/>
      <point x="437" y="248" type="line"/>
      <point x="437" y="295" type="line"/>
      <point x="86" y="295" type="line"/>
    </contour>
    <component base="d"/>
  </outline>
</glyph>
<glyph name="uniA7C9" format="2">
  <advance width="544"/>
  <unicode hex="A7C9"/>
  <anchor x="215" y="0" name="bottom"/>
  <anchor x="367" y="714" name="top"/>
  <anchor x="619" y="714" name="topright"/>
  <outline>
    <contour>
      <point x="62" y="341" type="line"/>
      <point x="527" y="341" type="line"/>
      <point x="537" y="390" type="line"/>
      <point x="72" y="390" type="line"/>
    </contour>
    <component base="S"/>
  </outline>
</glyph>
<glyph name="uniA7F7" format="2">
  <advance width="835"/>
  <unicode hex="A7F7"/>
  <outline>
    <contour>
      <point x="83" y="228" type="line"/>
      <point x="125" y="228" type="line"/>
      <point x="125" y="241" type="line" smooth="yes"/>
      <point x="125" y="285"/>
      <point x="134" y="322"/>
      <point x="197" y="322" type="curve" smooth="yes"/>
      <point x="683" y="322" type="line" smooth="yes"/>
      <point x="746" y="322"/>
      <point x="755" y="286"/>
      <point x="755" y="241" type="curve" smooth="yes"/>
      <point x="755" y="228" type="line"/>
      <point x="797" y="228" type="line"/>
      <point x="797" y="518" type="line"/>
      <point x="755" y="518" type="line"/>
      <point x="755" y="505" type="line" smooth="yes"/>
      <point x="755" y="460"/>
      <point x="746" y="423"/>
      <point x="683" y="423" type="curve" smooth="yes"/>
      <point x="197" y="423" type="line" smooth="yes"/>
      <point x="134" y="423"/>
      <point x="125" y="460"/>
      <point x="125" y="505" type="curve" smooth="yes"/>
      <point x="125" y="518" type="line"/>
      <point x="83" y="518" type="line"/>
    </contour>
  </outline>
</glyph>
<glyph name="uniAB30" format="2">
  <advance width="600"/>
  <unicode hex="AB30"/>
  <anchor x="243" y="0" name="bottom"/>
  <anchor x="357" y="536" name="top"/>
  <outline>
    <contour>
      <point x="-24" y="261" type="line"/>
      <point x="564" y="261" type="line"/>
      <point x="574" y="308" type="line"/>
      <point x="-14" y="308" type="line"/>
    </contour>
    <component base="uni0251"/>
  </outline>
</glyph>
<glyph name="uniAB3F" format="2">
  <advance width="507"/>
  <unicode hex="AB3F"/>
  <anchor x="300" y="536" name="bottom"/>
  <anchor x="186" y="0" name="top"/>
  <anchor x="-17" y="0" name="topright"/>
  <outline>
    <contour>
      <point x="20" y="-40" type="line"/>
      <point x="78" y="-40" type="line"/>
      <point x="477" y="576" type="line"/>
      <point x="419" y="576" type="line"/>
    </contour>
    <component base="c" xScale="-1" yScale="-1" xOffset="507" yOffset="536"/>
  </outline>
</glyph>
<glyph name="uniAB4F" format="2">
  <advance width="594"/>
  <unicode hex="AB4F"/>
  <outline>
    <contour>
      <point x="4" y="261" type="line"/>
      <point x="587" y="261" type="line"/>
      <point x="597" y="308" type="line"/>
      <point x="14" y="308" type="line"/>
    </contour>
    <component base="uniAB4E"/>
  </outline>
</glyph>
<glyph name="uniAB60" format="2">
  <advance width="779"/>
  <unicode hex="AB60"/>
  <outline>
    <contour>
      <point x="543" y="-10" type="curve" smooth="yes"/>
      <point x="654" y="-10"/>
      <point x="736" y="51"/>
      <point x="736" y="168" type="curve" smooth="yes"/>
      <point x="736" y="253"/>
      <point x="683" y="309"/>
      <point x="563" y="309" type="curve" smooth="yes"/>
      <point x="544" y="309"/>
      <point x="509" y="307"/>
      <point x="472" y="304" type="curve"/>
      <point x="521" y="536" type="line"/>
      <point x="336" y="536" type="line"/>
      <point x="327" y="494" type="line"/>
      <point x="335" y="494" type="line" smooth="yes"/>
      <point x="373" y="494"/>
      <point x="405" y="487"/>
      <point x="405" y="447" type="curve" smooth="yes"/>
      <point x="405" y="441"/>
      <point x="403" y="421"/>
      <point x="399" y="402" type="curve" smooth="yes"/>
      <point x="365" y="234" type="line" smooth="yes"/>
      <point x="360" y="211"/>
      <point x="353" y="165"/>
      <point x="353" y="133" type="curve" smooth="yes"/>
      <point x="353" y="35"/>
      <point x="417" y="-10"/>
    </contour>
    <contour>
      <point x="155" y="-10" type="curve" smooth="yes"/>
      <point x="205" y="-10"/>
      <point x="261" y="24"/>
      <point x="290" y="50" type="curve"/>
      <point x="272" y="79" type="line"/>
      <point x="247" y="64"/>
      <point x="222" y="53"/>
      <point x="200" y="53" type="curve" smooth="yes"/>
      <point x="178" y="53"/>
      <point x="167" y="70"/>
      <point x="167" y="104" type="curve" smooth="yes"/>
      <point x="167" y="131"/>
      <point x="177" y="193"/>
      <point x="182" y="215" type="curve" smooth="yes"/>
      <point x="250" y="536" type="line"/>
      <point x="71" y="536" type="line"/>
      <point x="62" y="494" type="line"/>
      <point x="75" y="494" type="line" smooth="yes"/>
      <point x="111" y="494"/>
      <point x="136" y="488"/>
      <point x="136" y="452" type="curve" smooth="yes"/>
      <point x="136" y="445"/>
      <point x="135" y="436"/>
      <point x="133" y="426" type="curve" smooth="yes"/>
      <point x="94" y="242" type="line" smooth="yes"/>
      <point x="86" y="203"/>
      <point x="72" y="126"/>
      <point x="72" y="85" type="curve" smooth="yes"/>
      <point x="72" y="33"/>
      <point x="102" y="-10"/>
    </contour>
    <contour>
      <point x="539" y="39" type="curve" smooth="yes"/>
      <point x="481" y="39"/>
      <point x="449" y="75"/>
      <point x="449" y="147" type="curve" smooth="yes"/>
      <point x="449" y="175"/>
      <point x="456" y="228"/>
      <point x="461" y="253" type="curve"/>
      <point x="477" y="254"/>
      <point x="506" y="257"/>
      <point x="543" y="257" type="curve" smooth="yes"/>
      <point x="605" y="257"/>
      <point x="637" y="224"/>
      <point x="637" y="164" type="curve" smooth="yes"/>
      <point x="637" y="96"/>
      <point x="605" y="39"/>
    </contour>
  </outline>
</glyph>
<glyph name="uniFE20" format="2">
  <unicode hex="FE20"/>
  <anchor x="43" y="536" name="_top"/>
  <outline>
    <contour>
      <point x="-312" y="595" type="curve"/>
      <point x="-269" y="595" type="line"/>
      <point x="-204" y="665"/>
      <point x="-87" y="711"/>
      <point x="80" y="711" type="curve"/>
      <point x="80" y="771" type="line"/>
      <point x="-128" y="771"/>
      <point x="-233" y="709"/>
    </contour>
  </outline>
</glyph>
<glyph name="uniFE21" format="2">
  <unicode hex="FE21"/>
  <anchor x="21" y="536" name="_top"/>
  <outline>
    <contour>
      <point x="417" y="595" type="curve"/>
      <point x="462" y="595" type="line"/>
      <point x="403" y="723"/>
      <point x="294" y="771"/>
      <point x="104" y="771" type="curve" smooth="yes"/>
      <point x="71" y="771" type="line"/>
      <point x="71" y="711" type="line"/>
      <point x="101" y="711" type="line" smooth="yes"/>
      <point x="254" y="711"/>
      <point x="363" y="680"/>
    </contour>
  </outline>
</glyph>
<glyph name="uniFE23" format="2">
  <unicode hex="FE23"/>
  <anchor x="37" y="536" name="_top"/>
  <outline>
    <contour>
      <point x="265" y="597" type="curve" smooth="yes"/>
      <point x="387" y="597"/>
      <point x="438" y="645"/>
      <point x="461" y="728" type="curve"/>
      <point x="416" y="728" type="line"/>
      <point x="399" y="678"/>
      <point x="363" y="657"/>
      <point x="280" y="657" type="curve" smooth="yes"/>
      <point x="221" y="657"/>
      <point x="152" y="670"/>
      <point x="70" y="693" type="curve"/>
      <point x="70" y="628" type="line"/>
      <point x="127" y="612"/>
      <point x="189" y="597"/>
    </contour>
  </outline>
</glyph>
<glyph name="combiningconjoiningmacron" format="2">
  <unicode hex="FE26"/>
  <anchor x="57" y="536" name="_top"/>
  <outline>
    <contour>
      <point x="-289" y="680" type="line"/>
      <point x="464" y="680" type="line"/>
      <point x="476" y="739" type="line"/>
      <point x="-277" y="739" type="line"/>
    </contour>
  </outline>
</glyph>
<glyph name="uniFE27" format="2">
  <unicode hex="FE27"/>
  <anchor x="-57" y="0" name="_bottom"/>
  <outline>
    <contour>
      <point x="-101" y="-207" type="curve"/>
      <point x="-88" y="-147" type="line"/>
      <point x="-250" y="-147"/>
      <point x="-356" y="-106"/>
      <point x="-396" y="-26" type="curve"/>
      <point x="-440" y="-26" type="line"/>
      <point x="-395" y="-153"/>
      <point x="-283" y="-207"/>
    </contour>
  </outline>
</glyph>
<glyph name="uniFE28" format="2">
  <unicode hex="FE28"/>
  <anchor x="-57" y="0" name="_bottom"/>
  <outline>
    <contour>
      <point x="-101" y="-207" type="line"/>
      <point x="85" y="-207"/>
      <point x="216" y="-148"/>
      <point x="313" y="-26" type="curve"/>
      <point x="268" y="-26" type="line"/>
      <point x="194" y="-107"/>
      <point x="71" y="-147"/>
      <point x="-88" y="-147" type="curve"/>
    </contour>
  </outline>
</glyph>
<glyph name="uniFE29" format="2">
  <unicode hex="FE29"/>
  <anchor x="-57" y="0" name="_bottom"/>
  <outline>
    <contour>
      <point x="-483" y="-196" type="curve"/>
      <point x="-438" y="-196" type="line"/>
      <point x="-401" y="-144"/>
      <point x="-353" y="-127"/>
      <point x="-295" y="-127" type="curve" smooth="yes"/>
      <point x="-244" y="-127"/>
      <point x="-182" y="-140"/>
      <point x="-93" y="-165" type="curve"/>
      <point x="-78" y="-97" type="line"/>
      <point x="-147" y="-77"/>
      <point x="-215" y="-67"/>
      <point x="-279" y="-67" type="curve" smooth="yes"/>
      <point x="-372" y="-67"/>
      <point x="-445" y="-115"/>
    </contour>
  </outline>
</glyph>
<glyph name="uniFE2A" format="2">
  <unicode hex="FE2A"/>
  <anchor x="-57" y="0" name="_bottom"/>
  <outline>
    <contour>
      <point x="104" y="-195" type="curve" smooth="yes"/>
      <point x="209" y="-195"/>
      <point x="279" y="-148"/>
      <point x="312" y="-66" type="curve"/>
      <point x="267" y="-66" type="line"/>
      <point x="241" y="-117"/>
      <point x="176" y="-135"/>
      <point x="124" y="-135" type="curve" smooth="yes"/>
      <point x="75" y="-135"/>
      <point x="15" y="-123"/>
      <point x="-77" y="-97" type="curve"/>
      <point x="-92" y="-165" type="line"/>
      <point x="-23" y="-185"/>
      <point x="42" y="-195"/>
    </contour>
  </outline>
</glyph>
<glyph name="uniFE2D" format="2">
  <unicode hex="FE2D"/>
  <anchor x="-57" y="0" name="_bottom"/>
  <outline>
    <contour>
      <point x="-476" y="-201" type="line"/>
      <point x="277" y="-201" type="line"/>
      <point x="289" y="-142" type="line"/>
      <point x="-464" y="-142" type="line"/>
    </contour>
  </outline>
</glyph>
<glyph name="uniFE2E" format="2">
  <unicode hex="FE2E"/>
  <anchor x="-24" y="536" name="_top"/>
  <outline>
    <contour>
      <point x="-11" y="570" type="curve" smooth="yes"/>
      <point x="18" y="570"/>
      <point x="33" y="585"/>
      <point x="38" y="616" type="curve"/>
      <point x="210" y="616" type="line"/>
      <point x="210" y="669" type="line"/>
      <point x="-10" y="669" type="line" smooth="yes"/>
      <point x="-46" y="669"/>
      <point x="-58" y="661"/>
      <point x="-58" y="622" type="curve" smooth="yes"/>
      <point x="-58" y="587"/>
      <point x="-42" y="570"/>
    </contour>
  </outline>
</glyph>
<glyph name="uniFE2F" format="2">
  <unicode hex="FE2F"/>
  <anchor x="136" y="536" name="_top"/>
  <outline>
    <contour>
      <point x="-51" y="616" type="line"/>
      <point x="169" y="616" type="line"/>
      <point x="206" y="616"/>
      <point x="218" y="627"/>
      <point x="218" y="664" type="curve" smooth="yes"/>
      <point x="218" y="698"/>
      <point x="202" y="715"/>
      <point x="170" y="715" type="curve" smooth="yes"/>
      <point x="141" y="715"/>
      <point x="126" y="700"/>
      <point x="122" y="669" type="curve"/>
      <point x="-51" y="669" type="line"/>
    </contour>
  </outline>
</glyph>
<glyph name="carondot" format="2">
  <advance width="577"/>
  <outline>
    <contour>
      <point x="441" y="751" type="curve" smooth="yes"/>
      <point x="467" y="751"/>
      <point x="495" y="767"/>
      <point x="495" y="814" type="curve" smooth="yes"/>
      <point x="495" y="848"/>
      <point x="474" y="864"/>
      <point x="445" y="864" type="curve"/>
      <point x="412" y="864"/>
      <point x="391" y="839"/>
      <point x="391" y="801" type="curve" smooth="yes"/>
      <point x="391" y="767"/>
      <point x="411" y="751"/>
    </contour>
    <component base="caron" xOffset="155"/>
  </outline>
</glyph>
<glyph name="hbar.sc" format="2">
  <advance width="657"/>
  <anchor x="278" y="0" name="bottom"/>
  <anchor x="408" y="571" name="top"/>
  <anchor x="329" y="286" name="center"/>
  <anchor x="718" y="571" name="topright"/>
  <outline>
    <contour>
      <point x="66" y="399" type="line"/>
      <point x="672" y="399" type="line"/>
      <point x="680" y="440" type="line"/>
      <point x="74" y="440" type="line"/>
    </contour>
    <component base="h.sc"/>
  </outline>
</glyph>
<glyph name="lslash.sc" format="2">
  <advance width="520"/>
  <anchor x="199" y="0" name="bottom"/>
  <anchor x="321" y="571" name="top"/>
  <anchor x="260" y="286" name="center"/>
  <anchor x="561" y="571" name="topright"/>
  <outline>
    <contour>
      <point x="24" y="183" type="line"/>
      <point x="359" y="351" type="line"/>
      <point x="370" y="403" type="line"/>
      <point x="35" y="233" type="line"/>
    </contour>
    <component base="l.sc"/>
  </outline>
</glyph>
<glyph name="uni0268dotless" format="2">
  <advance width="304"/>
  <anchor x="95" y="0" name="bottom"/>
  <anchor x="209" y="536" name="top"/>
  <outline>
    <contour>
      <point x="11" y="262" type="line"/>
      <point x="279" y="262" type="line"/>
      <point x="289" y="308" type="line"/>
      <point x="21" y="308" type="line"/>
    </contour>
    <component base="idotless"/>
  </outline>
</glyph>
<glyph name="zero.slash" format="2">
  <advance width="559"/>
  <outline>
    <contour>
      <point x="106" y="150" type="line"/>
      <point x="486" y="529" type="line"/>
      <point x="458" y="572" type="line"/>
      <point x="78" y="193" type="line"/>
    </contour>
    <component base="zero"/>
  </outline>
</glyph>
